# xmcd
#
# Track frame offsets: 
#        150
#        14584
#        31429
#        52124
#        72077
#        94531
#        117433
#        144015
#        167360
#        192082
#        210075
#        229093
#        249805
#        264250
#        290572
#
# Disc length: 4127 seconds
#
# Revision: 1
# Processed by: cddbd v1.5.2PL0 Copyright (c) Steve Scherf et al.
# Submitted via: ExactAudioCopy v1.0b3
#
DISCID=c0101d0f
DTITLE=LGYankees - YAPPARI LGYankees BEST？[Disc 2]
DYEAR=2013
DGENRE=Hip-Hop
TTITLE0=NO DOUBT SIX STAR
TTITLE1=Baby Girl
TTITLE2=Bye for Now
TTITLE3=Wonder Love
TTITLE4=Close to you
TTITLE5=Dear Mama
TTITLE6=Once More Again
TTITLE7=Only Holy Story
TTITLE8=Love Sick
TTITLE9=Playa Playa II
TTITLE10=Brothership
TTITLE11=Good Luck homies
TTITLE12=Always!!
TTITLE13=左手に咲いたリング
TTITLE14=男歌
EXTD=YEAR: 2013
EXTT0=
EXTT1=
EXTT2=
EXTT3=
EXTT4=
EXTT5=
EXTT6=
EXTT7=
EXTT8=
EXTT9=
EXTT10=
EXTT11=
EXTT12=
EXTT13=
EXTT14=
PLAYORDER=
